<svg width="59" height="78" viewBox="0 0 59 78" fill="none" xmlns="http://www.w3.org/2000/svg">
<path d="M39.0955 52.38C39.0955 52.38 39.0455 52.37 38.9955 52.36C38.9055 52.36 38.8255 52.35 38.7355 52.35C36.2155 52.38 33.9454 53.43 32.3154 55.11C32.4854 56.21 32.8555 57.25 33.3755 58.18C33.4355 58.09 33.5054 58 33.5654 57.91C33.6454 57.79 33.7354 57.67 33.8154 57.55C33.9954 57.3 34.1755 57.07 34.3655 56.84C34.4755 56.71 34.5755 56.59 34.6755 56.46C34.7855 56.33 34.8955 56.21 34.9955 56.08C35.1355 55.92 35.2655 55.77 35.4055 55.62C35.5455 55.47 35.6854 55.32 35.8254 55.17C35.9454 55.05 36.0655 54.93 36.1755 54.82C36.2555 54.74 36.3455 54.66 36.4255 54.58C36.6155 54.4 36.8055 54.22 36.9855 54.06C37.0555 54 37.1254 53.93 37.1954 53.87C37.3054 53.78 37.4055 53.69 37.5055 53.6C37.5755 53.54 37.6454 53.49 37.7054 53.43C37.8554 53.31 37.9855 53.2 38.1155 53.1C38.1855 53.05 38.2455 52.99 38.3055 52.95C38.3755 52.9 38.4355 52.85 38.4955 52.8C38.5655 52.75 38.6255 52.71 38.6755 52.66C38.7355 52.62 38.7854 52.58 38.8354 52.54C38.8954 52.5 38.9355 52.47 38.9755 52.44C39.0055 52.42 39.0155 52.41 39.0355 52.4C39.0655 52.38 39.0854 52.37 39.0854 52.37C39.0854 52.37 39.0855 52.37 39.0555 52.37L39.0955 52.38Z" fill="url(#paint0_linear_9122_5119)"/>
<path d="M37.616 27.93C37.776 27.55 37.966 27.17 38.186 26.82C38.316 26.45 38.466 26.1 38.616 25.76C37.456 23.52 35.996 21.45 34.286 19.6C34.286 19.6 34.296 19.6 34.306 19.59C34.176 19.45 34.046 19.32 33.916 19.19C33.806 19.08 33.7059 18.97 33.5959 18.86C28.9559 14.17 23.566 10.77 20.536 1.11C20.286 0.160001 19.6959 0 19.6959 0C19.1659 0.25 18.136 0.630005 18.136 0.630005C16.836 1.47 15.6559 2.47 14.5959 3.59C13.2959 4.89 12.216 6.4 11.376 8.06C16.436 13.36 21.716 15.12 26.746 17.88C26.896 17.96 27.036 18.04 27.186 18.13C27.366 18.23 27.5359 18.32 27.7159 18.43C27.7159 18.43 27.7059 18.44 27.6959 18.45C31.9959 20.98 35.646 24.57 38.236 28.94C38.036 28.6 37.836 28.27 37.626 27.94L37.616 27.93Z" fill="url(#paint1_linear_9122_5119)"/>
<path d="M41.6963 37.68C41.6963 37.68 41.6963 37.67 41.6963 37.66C40.9963 34.53 39.8264 31.62 38.2764 28.99C39.8364 31.62 41.0063 34.54 41.6963 37.68Z" fill="url(#paint2_linear_9122_5119)"/>
<path d="M27.6857 18.44C27.6857 18.44 27.6956 18.43 27.7056 18.42C27.5256 18.32 27.3557 18.22 27.1757 18.12C27.0257 18.04 26.8856 17.95 26.7356 17.87C20.4756 14.43 13.8256 12.57 7.7056 3.47002C7.1456 2.56002 6.49564 2.57001 6.49564 2.57001C6.02564 2.99001 5.0756 3.71003 5.0756 3.71003C3.9856 4.98003 3.0657 6.38002 2.3057 7.87002C1.7357 8.93002 1.30571 10.05 0.935707 11.2C1.19571 11.73 1.52569 12.36 1.91569 13.06C2.23569 13.57 2.53571 14.15 2.93571 14.71C3.31571 15.29 3.72571 15.89 4.18571 16.48C4.62571 17.1 5.14568 17.67 5.65568 18.27C6.17568 18.86 6.76561 19.41 7.33561 19.98C7.96561 20.47 8.5456 21.05 9.2056 21.48C9.8656 21.91 10.4857 22.4 11.1757 22.72C11.8457 23.07 12.4957 23.44 13.1657 23.64C13.8257 23.87 14.4357 24.15 15.0457 24.24C15.6457 24.37 16.2056 24.49 16.6956 24.59C17.1956 24.62 17.6356 24.65 17.9956 24.68C18.7256 24.73 19.1357 24.75 19.1357 24.75C19.1357 24.75 18.7156 24.77 17.9956 24.81C17.6256 24.83 17.1857 24.85 16.6757 24.88C16.1657 24.83 15.5856 24.78 14.9656 24.72C14.3256 24.7 13.6756 24.49 12.9556 24.33C12.2356 24.2 11.5157 23.9 10.7757 23.61C10.0057 23.36 9.29569 22.93 8.54569 22.55C7.78569 22.17 7.10565 21.64 6.37565 21.19C5.70565 20.66 5.00565 20.15 4.37565 19.59C3.75565 19.02 3.12561 18.47 2.58561 17.87C2.01561 17.3 1.50568 16.71 1.03568 16.14C0.695683 15.76 0.405648 15.38 0.125648 15C0.0156484 16.03 -0.0343272 17.07 0.0256728 18.13C0.0556728 19.21 0.145629 20.3 0.355629 21.39C0.555629 22.43 0.835687 23.43 1.16569 24.4C1.27569 24.49 1.37564 24.58 1.49564 24.68C1.91564 25 2.35563 25.39 2.85563 25.73C3.34563 26.09 3.87559 26.47 4.44559 26.81C4.99559 27.19 5.61562 27.5 6.22562 27.84C6.84562 28.17 7.50568 28.44 8.15568 28.74C8.82568 28.96 9.4957 29.26 10.1757 29.41C10.8557 29.56 11.5256 29.78 12.1956 29.82C12.8656 29.9 13.5157 30.01 14.1357 29.97C14.7557 29.95 15.3557 30 15.8857 29.89C16.4257 29.81 16.9256 29.74 17.3656 29.67C17.7956 29.54 18.1656 29.43 18.4756 29.34C19.0956 29.15 19.4456 29.05 19.4456 29.05C19.4456 29.05 19.1057 29.2 18.5157 29.47C18.2157 29.6 17.8557 29.77 17.4357 29.95C16.9957 30.08 16.5056 30.22 15.9556 30.37C15.4156 30.56 14.8057 30.6 14.1557 30.7C13.5057 30.82 12.8256 30.81 12.1056 30.81C11.3856 30.85 10.6557 30.72 9.90568 30.65C9.14568 30.58 8.41568 30.36 7.65568 30.22C6.92568 30 6.17561 29.8 5.46561 29.53C4.76561 29.25 4.05569 29 3.41569 28.68C3.31569 28.63 3.22565 28.58 3.12565 28.53C4.14565 30.18 5.37567 31.68 6.77567 32.98C7.88567 33.92 9.60559 35.21 11.9456 36.48C12.1256 36.57 12.3056 36.68 12.4856 36.76C16.4556 38.82 22.0557 40.75 29.2757 40.88C35.3857 41.4 39.7857 45.81 41.5457 51.27C42.5357 47.24 42.7057 42.94 41.8857 38.6C40.2257 29.8 34.8357 22.65 27.6757 18.43L27.6857 18.44Z" fill="url(#paint3_linear_9122_5119)"/>
<path d="M53.8459 20.58C44.8359 16.55 39.8459 23.59 39.8459 23.59L39.896 23.63C39.206 24.52 38.6359 25.59 38.1959 26.83C37.9659 27.19 37.786 27.56 37.626 27.94C39.676 31.09 41.166 34.69 41.906 38.61C42.726 42.95 42.5559 47.25 41.5659 51.28C41.5659 51.28 52.386 48.72 50.666 33.91C50.976 29.81 53.396 26.18 54.116 25.36C55.916 24.94 58.236 22.56 58.236 22.56C58.236 22.56 57.116 20.86 53.856 20.58H53.8459Z" fill="url(#paint4_linear_9122_5119)"/>
<path d="M38.7458 52.35C38.8358 52.35 38.9159 52.35 39.0059 52.36C38.4759 52.25 36.1959 51.8 32.2859 52.66C32.2459 53.04 32.2158 53.42 32.2158 53.81C32.2158 54.25 32.2658 54.69 32.3358 55.11C33.9658 53.43 36.2259 52.37 38.7559 52.35H38.7458Z" fill="url(#paint5_linear_9122_5119)"/>
<path d="M33.3858 58.18C32.8558 57.25 32.4957 56.21 32.3257 55.11C30.7257 56.76 29.7558 59.01 29.7858 61.49C29.7958 62.81 30.1058 64.06 30.6258 65.19C30.9758 62.34 32.1858 59.89 33.5858 57.9C33.5258 57.99 33.4558 58.08 33.3958 58.17L33.3858 58.18Z" fill="url(#paint6_linear_9122_5119)"/>
<path d="M38.9955 52.36C38.9955 52.36 39.0654 52.38 39.0854 52.38C38.8654 52.34 37.4355 51.98 34.8955 52.24C37.2055 52.01 38.5955 52.28 38.9955 52.36Z" fill="url(#paint7_linear_9122_5119)"/>
<path d="M30.6153 65.2C30.0953 64.07 29.7953 62.82 29.7753 61.5C29.7453 59.02 30.7252 56.77 32.3152 55.12C32.2452 54.69 32.2052 54.26 32.1952 53.82C32.1952 53.43 32.2153 53.05 32.2653 52.67C33.2453 52.45 34.1153 52.32 34.8853 52.24C33.3553 52.39 31.4353 52.76 29.1153 53.56C11.2053 59.7 15.7553 75.17 16.3053 76.38C17.5353 76.98 18.7453 77.22 19.9353 77.28C19.8553 76.88 19.7853 76.46 19.7353 76C19.6453 75.25 19.6353 74.45 19.6753 73.65C19.7353 73.25 19.7452 72.85 19.8352 72.47C19.9252 72.09 19.9853 71.71 20.1253 71.36C20.2453 71.01 20.3553 70.67 20.5253 70.37C20.6853 70.07 20.8053 69.77 20.9853 69.54C21.1553 69.3 21.3053 69.08 21.4353 68.88C21.5953 68.71 21.7353 68.55 21.8553 68.43C22.0853 68.18 22.2152 68.04 22.2152 68.04C22.2152 68.04 22.1053 68.2 21.9053 68.47C21.8053 68.61 21.6953 68.77 21.5553 68.96C21.4453 69.17 21.3352 69.4 21.2052 69.66C21.0552 69.9 20.9853 70.21 20.8753 70.51C20.7553 70.81 20.6953 71.15 20.6253 71.49C20.5353 71.83 20.5353 72.2 20.4953 72.56C20.4553 72.92 20.4953 73.3 20.4953 73.67C20.5553 74.41 20.6552 75.15 20.8352 75.82C20.9552 76.35 21.1153 76.83 21.2753 77.27C23.2053 77.15 25.1253 76.65 27.0453 76.34C27.0153 76.28 26.9752 76.22 26.9452 76.16C26.5452 75.42 26.2153 74.58 25.9353 73.74C25.8353 73.3 25.6853 72.88 25.6253 72.44C25.5653 72 25.4652 71.58 25.4752 71.16C25.4552 70.74 25.4252 70.34 25.4752 69.96C25.5152 69.58 25.5153 69.22 25.6153 68.9C25.6853 68.58 25.7552 68.29 25.8152 68.03C25.9152 67.78 25.9952 67.57 26.0652 67.39C26.2052 67.04 26.2853 66.84 26.2853 66.84C26.2853 66.84 26.2253 67.05 26.1353 67.42C26.0853 67.6 26.0252 67.82 25.9652 68.08C25.9352 68.34 25.9053 68.63 25.8653 68.95C25.8053 69.27 25.8452 69.61 25.8452 69.98C25.8352 70.34 25.9052 70.72 25.9652 71.11C26.0052 71.5 26.1453 71.89 26.2453 72.29C26.3453 72.69 26.5353 73.07 26.6753 73.46C27.0353 74.22 27.4253 74.96 27.8753 75.6C28.0153 75.81 28.1553 75.99 28.2953 76.18C30.3253 75.98 32.3853 76.15 34.5153 77.41C31.0353 72.87 30.1552 68.75 30.5952 65.22L30.6153 65.2Z" fill="url(#paint8_linear_9122_5119)"/>
<defs>
<linearGradient id="paint0_linear_9122_5119" x1="34.3354" y1="55.23" x2="46.2755" y2="55.46" gradientUnits="userSpaceOnUse">
<stop stop-color="#008200"/>
<stop offset="0.11" stop-color="#088A06"/>
<stop offset="0.29" stop-color="#1D9F18"/>
<stop offset="0.51" stop-color="#41C336"/>
<stop offset="0.75" stop-color="#73F55F"/>
<stop offset="0.8" stop-color="#7DFF67"/>
</linearGradient>
<linearGradient id="paint1_linear_9122_5119" x1="24.136" y1="20.39" x2="30.736" y2="1.34" gradientUnits="userSpaceOnUse">
<stop stop-color="#008200"/>
<stop offset="0.79" stop-color="#1DD300"/>
</linearGradient>
<linearGradient id="paint2_linear_9122_5119" x1="39.6063" y1="33.65" x2="41.2263" y2="32.28" gradientUnits="userSpaceOnUse">
<stop stop-color="#008200"/>
<stop offset="0.79" stop-color="#1DD300"/>
</linearGradient>
<linearGradient id="paint3_linear_9122_5119" x1="11.4665" y1="40.6642" x2="36.7364" y2="12.9921" gradientUnits="userSpaceOnUse">
<stop stop-color="#00DEFF"/>
<stop offset="0.79" stop-color="#0099FF"/>
</linearGradient>
<linearGradient id="paint4_linear_9122_5119" x1="62.876" y1="25.38" x2="25.626" y2="44.89" gradientUnits="userSpaceOnUse">
<stop stop-color="#00DEFF"/>
<stop offset="0.79" stop-color="#007FFF"/>
</linearGradient>
<linearGradient id="paint5_linear_9122_5119" x1="32.3458" y1="55.58" x2="39.4458" y2="48.97" gradientUnits="userSpaceOnUse">
<stop stop-color="#008200"/>
<stop offset="0.79" stop-color="#1DD300"/>
</linearGradient>
<linearGradient id="paint6_linear_9122_5119" x1="28.8659" y1="62.22" x2="40.8758" y2="52.7102" gradientUnits="userSpaceOnUse">
<stop stop-color="#008200"/>
<stop offset="0.79" stop-color="#1DD300"/>
</linearGradient>
<linearGradient id="paint7_linear_9122_5119" x1="35.7355" y1="53.25" x2="40.6955" y2="49.5301" gradientUnits="userSpaceOnUse">
<stop stop-color="#008200"/>
<stop offset="0.79" stop-color="#1DD300"/>
</linearGradient>
<linearGradient id="paint8_linear_9122_5119" x1="17.3653" y1="75.68" x2="43.4353" y2="55.68" gradientUnits="userSpaceOnUse">
<stop stop-color="#008200"/>
<stop offset="0.79" stop-color="#1DD300"/>
</linearGradient>
</defs>
</svg>
